Coordinates
version=1
nRows=24
nColumns=19
inDegrees=yes

Units are S.I. units (second, meters, Newtons, ...)
If the header above contains a line with 'inDegrees', this indicates whether rotational values are in degrees (yes) or radians (no).

endheader
time	pelvis_tilt	pelvis_list	pelvis_rotation	pelvis_tx	pelvis_ty	pelvis_tz	hip_flexion_r	hip_adduction_r	hip_rotation_r	knee_angle_r	knee_angle_r_beta	ankle_angle_r	hip_flexion_l	hip_adduction_l	hip_rotation_l	knee_angle_l	knee_angle_l_beta	ankle_angle_l
     13.64000000	     -6.09813543	      7.44608881	      9.31924638	      2.40982508	      0.95959663	      0.98412192	    -17.43664813	     -4.42312889	    -13.69524703	     61.64871714	      1.07597309	    -18.84741629	     31.52022093	     13.87843750	     -7.67706003	     16.24641189	      0.28355338	     -9.98863161
     13.64666667	     -5.52009103	      7.96811130	      9.74930021	      2.40879932	      0.95635604	      0.98346929	    -16.49098109	     -5.41530511	    -14.26316734	     66.34597915	      1.15795578	    -18.09946887	     30.71471439	     14.53527395	     -7.88640410	     17.46826500	      0.30487874	     -9.34703502
     13.65333333	     -5.28590427	      8.29080480	     10.03213767	      2.40749839	      0.95239497	      0.98314763	    -14.88814244	     -6.21907208	    -14.24633927	     71.14511686	      1.24171654	    -17.21107712	     30.46213042	     14.86185096	     -8.17515431	     19.40043058	      0.33860139	     -8.06608578
     13.66000000	     -5.01497868	      8.56279320	     10.32707137	      2.40601600	      0.94815077	      0.98301703	    -13.19624363	     -6.91294462	    -14.05961204	     75.86370476	      1.32407143	    -16.17454036	     30.20295927	     15.11824092	     -8.11295794	     21.81319044	      0.38071199	     -6.05773406
     13.66666667	     -4.42962387	      8.99906668	     10.58008249	      2.40450138	      0.94398221	      0.98308164	    -11.82040770	     -7.72820918	    -13.82817442	     80.41072679	      1.40343194	    -15.01115767	     29.50761338	     15.49886268	     -7.75686496	     24.47442780	      0.42715935	     -3.34065008
     13.67333333	     -4.67619972	      8.79369762	     10.67667317	      2.40248477	      0.93862479	      0.98340973	     -9.04253858	     -7.96826507	    -12.95994224	     85.07362632	      1.48481489	    -13.86521968	     29.95800355	     15.24817521	     -7.31838060	     27.73006261	      0.48398089	     -0.10862014
     13.68000000	     -4.55420636	      8.76541768	     10.70115452	      2.40044901	      0.93356560	      0.98386178	     -6.64608218	     -8.36358150	    -12.11668351	     89.48463094	      1.56180144	    -12.66925000	     29.82257250	     15.17566868	     -6.63610738	     30.96458518	      0.54043396	      3.61627122
     13.68666667	     -4.43724967	      8.64607243	     10.63482422	      2.39825760	      0.92849540	      0.98441139	     -4.07396004	     -8.67456693	    -11.12941436	     93.70596182	      1.63547756	    -11.53009281	     29.57730590	     15.02420697	     -5.86026174	     34.18720644	      0.59667931	      7.62817390
     13.69333333	     -4.30810786	      8.49921554	     10.50316027	      2.39590737	      0.92356089	      0.98501095	     -1.37671264	     -8.97245848	    -10.06051249	     97.69526191	      1.70510398	    -10.42546488	     29.14621553	     14.86625156	     -5.03728555	     37.25536754	      0.65022883	     11.70073746
     13.70000000	     -4.23993383	      8.26281122	     10.29495245	      2.39339736	      0.91885460	      0.98567869	      1.56116848	     -9.18799641	     -8.88119303	    101.41822473	      1.77008194	     -9.44431620	     28.58846998	     14.62547799	     -4.20725320	     40.06083591	      0.69919349	     15.71068484
     13.70666667	     -4.15672753	      7.99478876	     10.06765627	      2.39072963	      0.91456024	      0.98638223	      4.60879719	     -9.35362448	     -7.68172759	    104.82203620	      1.82948966	     -8.52922906	     27.79380093	     14.34037826	     -3.42294666	     42.53172760	      0.74231868	     19.43993762
     13.71333333	     -4.12870654	      7.70091045	      9.85429068	      2.38796086	      0.91075125	      0.98706572	      7.82742276	     -9.48437714	     -6.49547821	    107.86793166	      1.88265056	     -7.70997661	     26.81164566	     14.02785063	     -2.66561414	     44.58102097	      0.77808560	     22.79360274
     13.72000000	     -3.57466910	      7.57136347	      9.72217438	      2.38533698	      0.90822342	      0.98763663	     10.38407699	     -9.73865367	     -5.51716145	    110.38775550	      1.92662979	     -6.83683846	     24.89449367	     13.83448716	     -1.81223468	     46.05457959	      0.80380405	     25.72258030
     13.72666667	     -4.19025516	      6.98829626	      9.55842848	      2.38222638	      0.90481838	      0.98838289	     14.62232465	     -9.53617082	     -4.33106330	    112.74708978	      1.96780794	     -6.22743324	     24.28696657	     13.19557698	     -1.24073873	     47.40917637	      0.82744622	     28.08745111
     13.73333333	     -3.97694411	      6.64114271	      9.52832585	      2.37958071	      0.90319169	      0.98885744	     17.69502257	     -9.52180462	     -3.50530009	    114.44091338	      1.99737074	     -5.49739867	     22.35590711	     12.72387184	     -0.47269277	     48.09093045	      0.83934508	     30.05245163
     13.74000000	     -3.85981415	      6.19862013	      9.58743306	      2.37717148	      0.90223254	      0.98916612	     20.82546663	     -9.40256153	     -2.84996016	    115.64620900	      2.01840711	     -4.75139338	     20.30554112	     12.12812155	      0.33822271	     48.32163401	      0.84337161	     31.36637130
     13.74666667	     -4.34955320	      5.63093233	      9.55861746	      2.37460202	      0.90093329	      0.98951015	     24.76617904	     -9.14020235	     -2.09739908	    116.57139625	      2.03455468	     -4.11850037	     18.90649543	     11.38030487	      0.86256785	     48.41231782	      0.84495434	     32.39313130
     13.75333333	     -4.37388246	      5.05123346	      9.76753743	      2.37283911	      0.90120077	      0.98933634	     27.82875393	     -8.94891855	     -1.85941249	    116.80982479	      2.03871604	     -3.41886371	     16.63888979	     10.58566775	      1.69139872	     47.85711207	      0.83526418	     32.57922716
     13.76000000	     -4.57349346	      4.44094593	      9.92863731	      2.37136139	      0.90178038	      0.98909741	     30.99143521	     -8.67814808	     -1.63470760	    116.66543136	      2.03619590	     -2.68038445	     14.44979842	      9.72155125	      2.39818803	     47.01606513	      0.82058514	     32.61359916
     13.76666667	     -5.17062934	      3.78883358	      9.82997932	      2.37020971	      0.90232025	      0.98888062	     34.56180741	     -8.29869860	     -1.26276174	    116.18889726	      2.02787881	     -2.01156478	     12.62927927	      8.75701065	      2.67594421	     45.94430030	      0.80187931	     32.16171672
     13.77333333	     -5.52028095	      3.09593430	      9.87147573	      2.36969918	      0.90387629	      0.98826875	     37.51817897	     -7.94467652	     -1.24983222	    115.19778406	      2.01058062	     -1.36904713	     10.34437804	      7.76497339	      3.19035513	     44.46216759	      0.77601122	     31.21812413
     13.78000000	     -5.83193454	      2.39110635	      9.74189237	      2.36977413	      0.90600033	      0.98765819	     40.22028502	     -7.50045922	     -1.27342907	    113.80858067	      1.98633445	     -0.82759521	      7.89718436	      6.67332018	      3.39574633	     42.64455063	      0.74428782	     29.60466817
     13.78666667	     -5.89257735	      1.68332068	      9.44366894	      2.37051793	      0.90897013	      0.98704929	     42.36802208	     -6.93751929	     -1.37798878	    111.99888267	      1.95474926	     -0.33345308	      5.03706630	      5.50695914	      3.35007514	     40.44663117	      0.70592689	     27.55809543
     13.79333333	     -5.99908073	      0.93046855	      9.08029881	      2.37173474	      0.91228498	      0.98642896	     44.32633548	     -6.31519974	     -1.61441913	    109.85864626	      1.91739509	      0.02783209	      2.17171427	      4.31939281	      3.17641109	     38.01562287	      0.66349779	     24.93248394
